<svg xmlns="http://www.w3.org/2000/svg" version="1.1" xmlns:xlink="http://www.w3.org/1999/xlink" xmlns:svgjs="http://svgjs.dev/svgjs" width="1000" height="166" viewBox="0 0 1000 166"><g transform="matrix(1,0,0,1,-0.606058577020292,0.268970171790059)"><svg viewBox="0 0 396 66" data-background-color="#4f46e5" preserveAspectRatio="xMidYMid meet" height="166" width="1000" xmlns="http://www.w3.org/2000/svg" xmlns:xlink="http://www.w3.org/1999/xlink"><g id="tight-bounds" transform="matrix(1,0,0,1,0.23999921448995565,-0.10693974054311184)"><svg viewBox="0 0 395.52 66.2138752224854" height="66.2138752224854" width="395.52"><g><svg viewBox="0 0 518.204415302917 86.7524334916271" height="66.2138752224854" width="395.52"><g transform="matrix(1,0,0,1,0,11.989663384153967)"><svg viewBox="0 0 395.52 62.77310672331917" height="62.77310672331917" width="395.52"><g><svg viewBox="0 0 395.52 62.77310672331917" height="62.77310672331917" width="395.52"><g><svg viewBox="0 0 395.52 62.77310672331917" height="62.77310672331917" width="395.52"><g transform="matrix(1,0,0,1,0,0)"><svg width="395.52" viewBox="-0.699999988079071 -26.149999618530273 200.0399932861328 31.75" height="62.77310672331917" data-palette-color="#ffffff"><path d="M21.15-22L21.15-22Q19.15-22.3 16.88-22.3 14.6-22.3 12.45-22L12.45-22Q13.8-19.7 15.65-18.25 17.5-16.8 20.33-15.38 23.15-13.95 24.93-12.75 26.7-11.55 28.85-8.8 31-6.05 31.55-3.05L31.55-3.05Q29.15 0.05 25.2 2.43 21.25 4.8 17.1 5.6L17.1 5.6Q14.3 5.35 10.03 4.03 5.75 2.7 3.6 2.7 1.45 2.7-0.7 4.05L-0.7 4.05Q0.2 1.5 2.25-2.35L2.25-2.35 2.65-2.35Q5.85-2.35 8.68-1.35 11.5-0.35 13.83 0.65 16.15 1.65 17.57 1.65 19 1.65 19.65 1.45L19.65 1.45Q19.65-1.85 17.6-4L17.6-4Q16.5-5.15 15.73-5.78 14.95-6.4 13.35-7.5L13.35-7.5 12.5-8.1Q9.1-10.45 6.9-12.88 4.7-15.3 3.7-18.85L3.7-18.85Q5.3-22.4 6.85-25L6.85-25Q11.6-26.15 16.7-26.15L16.7-26.15 18.9-26.15Q23.2-26.15 28.75-24.95L28.75-24.95Q27.95-21.65 26.8-19L26.8-19Q22.6-18.7 20.3-18.7L20.3-18.7Q20.75-19.85 21.15-22ZM64.6-22.7L64.6-22.7Q64.6-24.05 64.2-25L64.2-25 78.45-25Q80.25-20.2 81.12-13.25 82-6.3 82.05 0L82.05 0 70.5 0Q70.15-9 67.55-17.35L67.55-17.35Q63.2-8.85 62.85 0L62.85 0 53.05 0Q51.75-9.8 48.05-17.4L48.05-17.4Q45.35-11.05 45.35-5.6L45.35-5.6Q45.35-2.65 46.05 0L46.05 0 33.9 0Q33.55-2.05 33.55-5.43 33.55-8.8 34.55-12.2L34.55-12.2Q38.1-13.25 41.37-15.65 44.65-18.05 46.2-20.9L46.2-20.9Q44.9-23.05 43.45-25L43.45-25 59.25-25Q61.15-19.85 62.1-13.8L62.1-13.8Q64.6-18.45 64.6-22.7ZM87.89-25L101.39-25 101.39-23.65Q101.39-10.45 99.75 0L99.75 0 87.75 0Q88.69-4.6 88.69-10.63 88.69-16.65 87.89-25L87.89-25ZM117.84-3.85Q120.19-3.3 122.34-3.3 124.49-3.3 125.77-4.28 127.04-5.25 127.64-7.65L127.64-7.65 133.64-7.45Q132.89-2.95 131.64 0L131.64 0 107.09 0Q106.14-6.4 106.14-13.25 106.14-20.1 106.84-25L106.84-25 121.24-25Q117.94-12.35 117.84-3.85L117.84-3.85ZM154.99-14.95L154.99-14.95 159.69-14.65Q160.39-14.65 160.74-14.7L160.74-14.7 158.39-10.3 157.94-10.3Q156.99-10.3 155.24-10.83 153.49-11.35 152.74-11.35L152.74-11.35Q150.69-11.35 149.49-8.7L149.49-8.7Q149.29-6.25 149.19-3.8L149.19-3.8Q151.79-3.3 153.29-3.3L153.29-3.3 153.74-3.3Q155.89-3.3 157.17-4.25 158.44-5.2 158.99-7.65L158.99-7.65 164.99-7.4Q164.24-3.1 162.99 0L162.99 0 138.44 0Q137.44-6.75 137.44-13.4 137.44-20.05 138.14-25L138.14-25 164.94-25Q164.04-19.6 163.34-17.4L163.34-17.4Q160.39-17.25 157.94-17.2L157.94-17.2Q158.34-18.35 158.34-19.35L158.34-19.35Q158.34-21.75 154.74-21.75L154.74-21.75Q153.39-21.75 151.74-21.45L151.74-21.45Q150.64-16.7 150.04-13.1L150.04-13.1Q152.04-14.95 154.99-14.95ZM188.94-22L188.94-22Q186.94-22.3 184.66-22.3 182.39-22.3 180.24-22L180.24-22Q181.59-19.7 183.44-18.25 185.29-16.8 188.11-15.38 190.94-13.95 192.71-12.75 194.49-11.55 196.64-8.8 198.79-6.05 199.34-3.05L199.34-3.05Q196.94 0.05 192.99 2.43 189.04 4.8 184.89 5.6L184.89 5.6Q182.09 5.35 177.81 4.03 173.54 2.7 171.39 2.7 169.24 2.7 167.09 4.05L167.09 4.05Q167.99 1.5 170.04-2.35L170.04-2.35 170.44-2.35Q173.64-2.35 176.46-1.35 179.29-0.35 181.61 0.65 183.94 1.65 185.36 1.65 186.79 1.65 187.44 1.45L187.44 1.45Q187.44-1.85 185.39-4L185.39-4Q184.29-5.15 183.51-5.78 182.74-6.4 181.14-7.5L181.14-7.5 180.29-8.1Q176.89-10.45 174.69-12.88 172.49-15.3 171.49-18.85L171.49-18.85Q173.09-22.4 174.64-25L174.64-25Q179.39-26.15 184.49-26.15L184.49-26.15 186.69-26.15Q190.99-26.15 196.54-24.95L196.54-24.95Q195.74-21.65 194.59-19L194.59-19Q190.39-18.7 188.09-18.7L188.09-18.7Q188.54-19.85 188.94-22Z" opacity="1" transform="matrix(1,0,0,1,0,0)" fill="#ffffff" class="undefined-text-0" data-fill-palette-color="primary" id="text-0"></path></svg></g></svg></g></svg></g></svg></g><g transform="matrix(1,0,0,1,410.3392239428143,0)"><svg viewBox="0 0 107.86519136010274 86.7524334916271" height="86.7524334916271" width="107.86519136010274"><g><svg xmlns="http://www.w3.org/2000/svg" xmlns:xlink="http://www.w3.org/1999/xlink" version="1.1" x="0" y="0" viewBox="0 9.78600025177002 100.0003433227539 80.42699432373047" enable-background="new 0 0 100 100" xml:space="preserve" width="107.86519136010274" height="86.7524334916271" class="icon-icon-0" data-fill-palette-color="accent" id="icon-0"><path d="M49.942 52.994c13.552-0.488 27.103-0.977 40.653-1.465-2.527-4.177-3.159-7.831-7.989-8.461-7.229-0.94-14.458-1.883-21.688-2.826-14.023-1.827-28.05-3.654-42.075-5.48C20.101 36.792 39.724 53.361 49.942 52.994z" fill="#ffffff" data-fill-palette-color="accent"></path><path d="M0 9.786c4.391 7.257 26.615 23.072 32.953 23.886 17.33 2.231 34.657 4.46 51.986 6.688-3.393-5.607-4.18-9.35-10.312-10.959-8.904-2.341-17.812-4.683-26.717-7.023C31.94 18.182 15.97 13.984 0 9.786z" fill="#ffffff" data-fill-palette-color="accent"></path><path d="M63.108 66.207c10.413-2.219 20.826-4.439 31.241-6.66-2.028-3.346-2.034-5.359-5.827-5.189-6.158 0.273-12.314 0.549-18.471 0.822-11.343 0.506-22.686 1.014-34.028 1.518C37.298 58.064 54.94 67.947 63.108 66.207z" fill="#ffffff" data-fill-palette-color="accent"></path><path d="M87.682 90.213c5.725-3.719 7.262-7.721 10.519-13.807 3.651-6.824 1.257-7.844-2.821-14.596-0.417-0.688-5.842 0.232-6.453 0.904-0.745 0.818-0.248 5.455-0.294 6.496C88.315 76.211 87.998 83.213 87.682 90.213z" fill="#ffffff" data-fill-palette-color="accent"></path><path d="M86.35 63.447c-3.795 0.809-8.604 0.191-9.572 4.229-1.373 5.736-2.746 11.475-4.12 17.211C81.904 82.678 86.028 71.582 86.35 63.447z" fill="#ffffff" data-fill-palette-color="accent"></path><path d="M74.666 66.121c-9.148 1.953-8.956 4.611-12.879 13.18C68.007 78.711 73.811 71.941 74.666 66.121z" fill="#ffffff" data-fill-palette-color="accent"></path></svg></g></svg></g></svg></g><defs></defs></svg><rect width="395.52" height="66.2138752224854" fill="none" stroke="none" visibility="hidden"></rect></g></svg></g></svg>